<?xml version="1.0" encoding="UTF-8" standalone="no"?>
<!-- Created with Inkscape (http://www.inkscape.org/) -->
<svg xmlns:dc="http://purl.org/dc/elements/1.1/" xmlns:cc="http://creativecommons.org/ns#" xmlns:rdf="http://www.w3.org/1999/02/22-rdf-syntax-ns#" xmlns:svg="http://www.w3.org/2000/svg" xmlns="http://www.w3.org/2000/svg" xmlns:xlink="http://www.w3.org/1999/xlink" xmlns:sodipodi="http://sodipodi.sourceforge.net/DTD/sodipodi-0.dtd" xmlns:inkscape="http://www.inkscape.org/namespaces/inkscape" id="svg2" version="1.1" inkscape:version="0.48.2 r9819" width="881.05096" height="607.98828" sodipodi:docname="flipflopsbrights_tnb.svg" inkscape:export-filename="C:\Users\Gustavo Rocha\Pictures\InkScape\flipflopsbrights_tnb.png" inkscape:export-xdpi="300.02832" inkscape:export-ydpi="300.02832">
  <metadata id="metadata8">
    <rdf:RDF>
      <cc:Work rdf:about="">
        <dc:format>image/svg+xml</dc:format>
        <dc:type rdf:resource="http://purl.org/dc/dcmitype/StillImage"/>
        <dc:title/>
      </cc:Work>
    </rdf:RDF>
  </metadata>
  <defs id="defs6">
    <pattern inkscape:collect="always" xlink:href="#pattern5447" id="pattern5716" patternTransform="matrix(-1,0,0,1,352.42548,168.12835)"/>
    <linearGradient id="linearGradient5615">
      <stop style="stop-color:#ffff00;stop-opacity:1;" offset="0" id="stop5617"/>
      <stop id="stop5623" offset="0.5" style="stop-color:#ff8000;stop-opacity:1;"/>
      <stop style="stop-color:#ff0000;stop-opacity:1;" offset="1" id="stop5619"/>
    </linearGradient>
    <pattern inkscape:collect="always" xlink:href="#pattern4562" id="pattern5578" patternTransform="translate(102.7362,53.077713)"/>
    <pattern inkscape:collect="always" xlink:href="#pattern4562" id="pattern5561" patternTransform="matrix(-1,0,0,1,24.846707,52.340007)"/>
    <linearGradient id="linearGradient5330">
      <stop style="stop-color:#008000;stop-opacity:1;" offset="0" id="stop5332"/>
      <stop id="stop5338" offset="0.5" style="stop-color:#004000;stop-opacity:1;"/>
      <stop style="stop-color:#008000;stop-opacity:1;" offset="1" id="stop5334"/>
    </linearGradient>
    <linearGradient id="linearGradient5292">
      <stop style="stop-color:#ffff00;stop-opacity:1;" offset="0" id="stop5294"/>
      <stop id="stop5300" offset="0.5" style="stop-color:#ff8000;stop-opacity:1;"/>
      <stop style="stop-color:#ff0000;stop-opacity:1;" offset="1" id="stop5296"/>
    </linearGradient>
    <pattern inkscape:collect="always" xlink:href="#pattern5005" id="pattern5280" patternTransform="translate(344.68498,120.68979)"/>
    <pattern inkscape:collect="always" xlink:href="#pattern5013" id="pattern5266" patternTransform="matrix(-1,0,0,1,232.18177,120.68979)"/>
    <pattern inkscape:collect="always" xlink:href="#pattern4809" id="pattern5013" patternTransform="matrix(-1,0,0,1,232.18177,120.68979)"/>
    <pattern inkscape:collect="always" xlink:href="#pattern4809" id="pattern5005" patternTransform="translate(344.68498,120.68979)"/>
    <pattern patternUnits="userSpaceOnUse" width="12.38727" height="12.629862" patternTransform="translate(-76.95739,42.066028)" id="pattern3815">
      <path transform="matrix(0.58868757,0,0,0.58868757,60.655535,29.044713)" d="m -85.373749,-30.539243 -5.676534,-4.434571 -0.431578,7.090006 -1.985837,-6.924227 -4.516554,5.482261 2.463382,-6.769063 -6.87636,1.780478 5.971672,-4.028347 -6.609632,-2.601387 7.198988,0.25106 -3.818247,-5.98961 5.676534,4.434571 0.431578,-7.090006 1.985837,6.924227 4.516554,-5.482261 -2.463382,6.769063 6.876361,-1.780478 -5.971673,4.028347 6.609631,2.601387 -7.198988,-0.25106 z" inkscape:randomized="0" inkscape:rounded="0" inkscape:flatsided="false" sodipodi:arg2="1.1881671" sodipodi:arg1="0.84654633" sodipodi:r2="3.9206457" sodipodi:r1="10.776685" sodipodi:cy="-38.610943" sodipodi:cx="-92.514099" sodipodi:sides="10" id="path3813" style="fill:#00ffff;fill-opacity:1;fill-rule:nonzero;stroke:none" sodipodi:type="star"/>
    </pattern>
    <pattern patternUnits="userSpaceOnUse" width="12.38727" height="12.629862" patternTransform="translate(-82.427865,42.749837)" id="pattern4562">
      <path transform="matrix(0.58868757,0,0,0.58868757,60.655535,29.044713)" d="m -85.373749,-30.539243 -5.676534,-4.434571 -0.431578,7.090006 -1.985837,-6.924227 -4.516554,5.482261 2.463382,-6.769063 -6.87636,1.780478 5.971672,-4.028347 -6.609632,-2.601387 7.198988,0.25106 -3.818247,-5.98961 5.676534,4.434571 0.431578,-7.090006 1.985837,6.924227 4.516554,-5.482261 -2.463382,6.769063 6.876361,-1.780478 -5.971673,4.028347 6.609631,2.601387 -7.198988,-0.25106 z" inkscape:randomized="0" inkscape:rounded="0" inkscape:flatsided="false" sodipodi:arg2="1.1881671" sodipodi:arg1="0.84654633" sodipodi:r2="3.9206457" sodipodi:r1="10.776685" sodipodi:cy="-38.610943" sodipodi:cx="-92.514099" sodipodi:sides="10" id="path4558" style="fill:#00bf00;fill-opacity:1;fill-rule:nonzero;stroke:none" sodipodi:type="star"/>
    </pattern>
    <pattern patternUnits="userSpaceOnUse" width="84.84375" height="84.84375" patternTransform="translate(-129.96875,81.71875)" id="pattern4809">
      <g id="g4789" transform="translate(129.96875,-81.71875)">
        <path style="fill:#0080ff;fill-opacity:1;fill-rule:nonzero;stroke:none" d="m -129.96875,124.90625 0,13.375 28.28125,28.28125 13.34375,0 -41.625,-41.65625 z" id="rect3023" inkscape:connector-curvature="0"/>
        <path style="fill:#ffff00;fill-opacity:1;fill-rule:nonzero;stroke:none" d="m -129.96875,119.28125 0,5.625 41.625,41.65625 5.6875,0 -47.3125,-47.28125 z" id="rect3793" inkscape:connector-curvature="0"/>
        <path style="fill:#00ccff;fill-opacity:1;fill-rule:nonzero;stroke:none" d="m -129.96875,110.03125 0,9.25 47.3125,47.28125 9.25,0 -56.5625,-56.53125 z" id="rect3795" inkscape:connector-curvature="0"/>
        <path style="fill:#0080ff;fill-opacity:1;fill-rule:nonzero;stroke:none" d="m -129.96875,96.65625 0,13.375 56.5625,56.53125 13.375,0 -69.9375,-69.90625 z" id="rect4528" inkscape:connector-curvature="0"/>
        <path style="fill:#ffff00;fill-opacity:1;fill-rule:nonzero;stroke:none" d="m -129.96875,90.96875 0,5.6875 69.9375,69.90625 5.65625,0 -75.59375,-75.59375 z" id="rect4530" inkscape:connector-curvature="0"/>
        <path style="fill:#00ccff;fill-opacity:1;fill-rule:nonzero;stroke:none" d="m -129.96875,81.71875 0,9.25 75.59375,75.59375 9.25,0 -84.84375,-84.84375 z" id="rect4532" inkscape:connector-curvature="0"/>
        <path style="fill:#0080ff;fill-opacity:1;fill-rule:nonzero;stroke:none" d="m -129.96875,81.71875 84.84375,84.84375 0,-13.375 -71.46875,-71.46875 -13.375,0 z" id="rect4536" inkscape:connector-curvature="0"/>
        <path style="fill:#ffff00;fill-opacity:1;fill-rule:nonzero;stroke:none" d="m -116.59375,81.71875 71.46875,71.46875 0,-5.65625 -65.84375,-65.8125 -5.625,0 z" id="rect4538" inkscape:connector-curvature="0"/>
        <path style="fill:#00ccff;fill-opacity:1;fill-rule:nonzero;stroke:none" d="m -110.96875,81.71875 65.84375,65.8125 0,-9.25 -56.5625,-56.5625 -9.28125,0 z" id="rect4540" inkscape:connector-curvature="0"/>
        <path style="fill:#0080ff;fill-opacity:1;fill-rule:nonzero;stroke:none" d="m -129.96875,153.21875 0,13.34375 13.375,0 -13.375,-13.34375 z" id="rect4544" inkscape:connector-curvature="0"/>
        <path style="fill:#ffff00;fill-opacity:1;fill-rule:nonzero;stroke:none" d="m -129.96875,147.53125 0,5.6875 13.375,13.34375 5.625,0 -19,-19.03125 z" id="rect4546" inkscape:connector-curvature="0"/>
        <path style="fill:#00ccff;fill-opacity:1;fill-rule:nonzero;stroke:none" d="m -129.96875,138.28125 0,9.25 19,19.03125 9.28125,0 -28.28125,-28.28125 z" id="rect4548" inkscape:connector-curvature="0"/>
        <path style="fill:#0080ff;fill-opacity:1;fill-rule:nonzero;stroke:none" d="m -101.6875,81.71875 56.5625,56.5625 0,-13.375 -43.1875,-43.1875 -13.375,0 z" id="rect4552" inkscape:connector-curvature="0"/>
        <path style="fill:#ffff00;fill-opacity:1;fill-rule:nonzero;stroke:none" d="m -88.3125,81.71875 43.1875,43.1875 0,-5.65625 -37.53125,-37.53125 -5.65625,0 z" id="rect4554" inkscape:connector-curvature="0"/>
        <path style="fill:#00ccff;fill-opacity:1;fill-rule:nonzero;stroke:none" d="M -82.65625,81.71875 -45.125,119.25 l 0,-9.25 -28.28125,-28.28125 -9.25,0 z" id="rect4556" inkscape:connector-curvature="0"/>
        <path style="fill:#0080ff;fill-opacity:1;fill-rule:nonzero;stroke:none" d="M -73.40625,81.71875 -45.125,110 l 0,-13.375 -14.90625,-14.90625 -13.375,0 z" id="rect4645" inkscape:connector-curvature="0"/>
        <path style="fill:#ffff00;fill-opacity:1;fill-rule:nonzero;stroke:none" d="M -60.03125,81.71875 -45.125,96.625 l 0,-5.65625 -9.25,-9.25 -5.65625,0 z" id="rect4647" inkscape:connector-curvature="0"/>
        <path style="fill:#00ccff;fill-opacity:1;fill-rule:nonzero;stroke:none" d="m -54.375,81.71875 9.25,9.25 0,-9.25 -9.25,0 z" id="rect4649" inkscape:connector-curvature="0"/>
      </g>
    </pattern>
    <pattern patternUnits="userSpaceOnUse" width="41.003194" height="35.651317" patternTransform="translate(388.16146,144.45552)" id="pattern4926">
      <g id="g4914" transform="translate(-388.16146,-144.45552)">
        <path sodipodi:nodetypes="scscs" inkscape:connector-curvature="0" id="path4886" d="m 401.55882,145.77508 c 1.42858,2.33016 -3.2179,4.02646 -4.28554,7.59327 -1.06764,-3.56681 -5.71412,-5.26311 -4.28553,-7.59327 1.29936,-2.11937 3.36443,-1.40448 4.28553,0.17122 0.92111,-1.5757 2.98618,-2.29059 4.28554,-0.17122 z" style="fill:#ff0000;stroke:none"/>
        <path style="fill:#ff0000;stroke:none" d="m 410.67064,154.68791 c 1.42858,2.33016 -3.2179,4.02646 -4.28554,7.59327 -1.06764,-3.56681 -5.71412,-5.26311 -4.28553,-7.59327 1.29936,-2.11937 3.36443,-1.40448 4.28553,0.17122 0.92111,-1.5757 2.98618,-2.29059 4.28554,-0.17122 z" id="path4888" inkscape:connector-curvature="0" sodipodi:nodetypes="scscs"/>
        <path style="fill:#ff0000;stroke:none" d="m 401.55882,163.60074 c 1.42858,2.33016 -3.2179,4.02646 -4.28554,7.59327 -1.06764,-3.56681 -5.71412,-5.26311 -4.28553,-7.59327 1.29936,-2.11937 3.36443,-1.40448 4.28553,0.17122 0.92111,-1.5757 2.98618,-2.29059 4.28554,-0.17122 z" id="path4892" inkscape:connector-curvature="0" sodipodi:nodetypes="scscs"/>
        <path sodipodi:nodetypes="scscs" inkscape:connector-curvature="0" id="path4894" d="m 410.67064,172.51357 c 1.42858,2.33016 -3.2179,4.02646 -4.28554,7.59327 -1.06764,-3.56681 -5.71412,-5.26311 -4.28553,-7.59327 1.29936,-2.11937 3.36443,-1.40448 4.28553,0.17122 0.92111,-1.5757 2.98618,-2.29059 4.28554,-0.17122 z" style="fill:#ff0000;stroke:none"/>
        <path style="fill:#ff0000;stroke:none" d="m 419.78246,145.77508 c 1.42858,2.33016 -3.2179,4.02646 -4.28554,7.59327 -1.06764,-3.56681 -5.71412,-5.26311 -4.28553,-7.59327 1.29936,-2.11937 3.36443,-1.40448 4.28553,0.17122 0.92111,-1.5757 2.98618,-2.29059 4.28554,-0.17122 z" id="path4896" inkscape:connector-curvature="0" sodipodi:nodetypes="scscs"/>
        <path sodipodi:nodetypes="scscs" inkscape:connector-curvature="0" id="path4898" d="m 428.89428,154.68791 c 1.42858,2.33016 -3.2179,4.02646 -4.28554,7.59327 -1.06764,-3.56681 -5.71412,-5.26311 -4.28553,-7.59327 1.29936,-2.11937 3.36443,-1.40448 4.28553,0.17122 0.92111,-1.5757 2.98618,-2.29059 4.28554,-0.17122 z" style="fill:#ff0000;stroke:none"/>
        <path sodipodi:nodetypes="scscs" inkscape:connector-curvature="0" id="path4900" d="m 419.78246,163.60074 c 1.42858,2.33016 -3.2179,4.02646 -4.28554,7.59327 -1.06764,-3.56681 -5.71412,-5.26311 -4.28553,-7.59327 1.29936,-2.11937 3.36443,-1.40448 4.28553,0.17122 0.92111,-1.5757 2.98618,-2.29059 4.28554,-0.17122 z" style="fill:#ff0000;stroke:none"/>
        <path style="fill:#ff0000;stroke:none" d="m 428.89428,172.51357 c 1.42858,2.33016 -3.2179,4.02646 -4.28554,7.59327 -1.06764,-3.56681 -5.71412,-5.26311 -4.28553,-7.59327 1.29936,-2.11937 3.36443,-1.40448 4.28553,0.17122 0.92111,-1.5757 2.98618,-2.29059 4.28554,-0.17122 z" id="path4902" inkscape:connector-curvature="0" sodipodi:nodetypes="scscs"/>
        <path sodipodi:nodetypes="cscc" inkscape:connector-curvature="0" id="path4908" d="m 388.16146,154.85913 c 0.92111,-1.5757 2.98618,-2.29059 4.28554,-0.17122 1.42858,2.33016 -3.2179,4.02646 -4.28554,7.59327 z" style="fill:#ff0000;stroke:none"/>
        <path style="fill:#ff0000;stroke:none" d="m 388.16146,172.68479 c 0.92111,-1.5757 2.98618,-2.29059 4.28554,-0.17122 1.42858,2.33016 -3.2179,4.02646 -4.28554,7.59327 z" id="path4912" inkscape:connector-curvature="0" sodipodi:nodetypes="cscc"/>
      </g>
    </pattern>
    <pattern patternUnits="userSpaceOnUse" width="39.76253" height="148.4375" patternTransform="translate(-208.04378,79)" id="pattern5195">
      <g id="g5183" transform="translate(208.04378,-79)">
        <path style="font-size:medium;font-style:normal;font-variant:normal;font-weight:normal;font-stretch:normal;text-indent:0;text-align:start;text-decoration:none;line-height:normal;letter-spacing:normal;word-spacing:normal;text-transform:none;direction:ltr;block-progression:tb;writing-mode:lr-tb;text-anchor:start;baseline-shift:baseline;color:#000000;fill:#008000;fill-opacity:1;stroke:none;stroke-width:5;marker:none;visibility:visible;display:inline;overflow:visible;enable-background:accumulate;font-family:Sans;-inkscape-font-specification:Sans" d="m -198,79 a 2.50025,2.50025 0 0 0 0.15625,1.4375 c 0,0 2.4696,5.974589 4.9375,13.5 2.4679,7.52541 4.875,16.69573 4.875,22.40625 0,5.71052 -2.3125,11.43674 -4.8125,17.46875 -2.5,6.03201 -5.1875,12.38652 -5.1875,19.40625 0,7.01974 2.6875,13.34299 5.1875,19.375 2.5,6.03201 4.8125,11.75823 4.8125,17.46875 0,5.71052 -2.4071,14.91209 -4.875,22.4375 -2.4679,7.52541 -4.9375,13.46875 -4.9375,13.46875 a 2.5012204,2.5012204 0 0 0 -0.125,1.46875 l 4.9375,0 c 0.25689,-0.62308 2.48281,-6.08045 4.875,-13.375 2.5321,-7.72118 5.125,-16.98027 5.125,-24 0,-7.01974 -2.6875,-13.34299 -5.1875,-19.375 -2.5,-6.03201 -4.8125,-11.75823 -4.8125,-17.46875 0,-5.71052 2.3125,-11.43674 4.8125,-17.46875 2.5,-6.03201 5.1875,-12.38652 5.1875,-19.40625 0,-7.01974 -2.5929,-16.24757 -5.125,-23.96875 -2.38465,-7.271557 -4.60554,-12.717911 -4.875,-13.375 L -198,79 z" id="path5120" inkscape:connector-curvature="0"/>
        <path style="font-size:medium;font-style:normal;font-variant:normal;font-weight:normal;font-stretch:normal;text-indent:0;text-align:start;text-decoration:none;line-height:normal;letter-spacing:normal;word-spacing:normal;text-transform:none;direction:ltr;block-progression:tb;writing-mode:lr-tb;text-anchor:start;baseline-shift:baseline;color:#000000;fill:#0000ff;fill-opacity:1;stroke:none;stroke-width:5;marker:none;visibility:visible;display:inline;overflow:visible;enable-background:accumulate;font-family:Sans;-inkscape-font-specification:Sans" d="m -193,79 a 2.50025,2.50025 0 0 0 0.15625,1.4375 c 0,0 2.4696,5.974589 4.9375,13.5 2.4679,7.52541 4.875,16.69573 4.875,22.40625 0,5.71052 -2.3125,11.43674 -4.8125,17.46875 -2.5,6.03201 -5.1875,12.38652 -5.1875,19.40625 0,7.01974 2.6875,13.34299 5.1875,19.375 2.5,6.03201 4.8125,11.75823 4.8125,17.46875 0,5.71052 -2.4071,14.91209 -4.875,22.4375 -2.4679,7.52541 -4.9375,13.46875 -4.9375,13.46875 a 2.5012204,2.5012204 0 0 0 -0.125,1.46875 l 4.9375,0 c 0.25689,-0.62308 2.48281,-6.08045 4.875,-13.375 2.5321,-7.72118 5.125,-16.98027 5.125,-24 0,-7.01974 -2.6875,-13.34299 -5.1875,-19.375 -2.5,-6.03201 -4.8125,-11.75823 -4.8125,-17.46875 0,-5.71052 2.3125,-11.43674 4.8125,-17.46875 2.5,-6.03201 5.1875,-12.38652 5.1875,-19.40625 0,-7.01974 -2.5929,-16.24757 -5.125,-23.96875 -2.38465,-7.271557 -4.60554,-12.717911 -4.875,-13.375 L -193,79 z" id="path5126" inkscape:connector-curvature="0"/>
        <path style="font-size:medium;font-style:normal;font-variant:normal;font-weight:normal;font-stretch:normal;text-indent:0;text-align:start;text-decoration:none;line-height:normal;letter-spacing:normal;word-spacing:normal;text-transform:none;direction:ltr;block-progression:tb;writing-mode:lr-tb;text-anchor:start;baseline-shift:baseline;color:#000000;fill:#800080;fill-opacity:1;stroke:none;stroke-width:5;marker:none;visibility:visible;display:inline;overflow:visible;enable-background:accumulate;font-family:Sans;-inkscape-font-specification:Sans" d="m -188,79 a 2.50025,2.50025 0 0 0 0.15625,1.4375 c 0,0 2.4696,5.974589 4.9375,13.5 2.4679,7.52541 4.875,16.69573 4.875,22.40625 0,5.71052 -2.3125,11.43674 -4.8125,17.46875 -2.5,6.03201 -5.1875,12.38652 -5.1875,19.40625 0,7.01974 2.6875,13.34299 5.1875,19.375 2.5,6.03201 4.8125,11.75823 4.8125,17.46875 0,5.71052 -2.4071,14.91209 -4.875,22.4375 -2.4679,7.52541 -4.9375,13.46875 -4.9375,13.46875 a 2.5012204,2.5012204 0 0 0 -0.125,1.46875 l 4.9375,0 c 0.25689,-0.62308 2.48281,-6.08045 4.875,-13.375 2.5321,-7.72118 5.125,-16.98027 5.125,-24 0,-7.01974 -2.6875,-13.34299 -5.1875,-19.375 -2.5,-6.03201 -4.8125,-11.75823 -4.8125,-17.46875 0,-5.71052 2.3125,-11.43674 4.8125,-17.46875 2.5,-6.03201 5.1875,-12.38652 5.1875,-19.40625 0,-7.01974 -2.5929,-16.24757 -5.125,-23.96875 -2.38465,-7.271557 -4.60554,-12.717911 -4.875,-13.375 L -188,79 z" id="path5128" inkscape:connector-curvature="0"/>
        <path style="font-size:medium;font-style:normal;font-variant:normal;font-weight:normal;font-stretch:normal;text-indent:0;text-align:start;text-decoration:none;line-height:normal;letter-spacing:normal;word-spacing:normal;text-transform:none;direction:ltr;block-progression:tb;writing-mode:lr-tb;text-anchor:start;baseline-shift:baseline;color:#000000;fill:#ff6600;fill-opacity:1;stroke:none;stroke-width:5;marker:none;visibility:visible;display:inline;overflow:visible;enable-background:accumulate;font-family:Sans;-inkscape-font-specification:Sans" d="m -183,79 a 2.50025,2.50025 0 0 0 0.15625,1.4375 c 0,0 2.4696,5.974589 4.9375,13.5 2.4679,7.52541 4.875,16.69573 4.875,22.40625 0,5.71052 -2.3125,11.43674 -4.8125,17.46875 -2.5,6.03201 -5.1875,12.38652 -5.1875,19.40625 0,7.01974 2.6875,13.34299 5.1875,19.375 2.5,6.03201 4.8125,11.75823 4.8125,17.46875 0,5.71052 -2.4071,14.91209 -4.875,22.4375 -2.4679,7.52541 -4.9375,13.46875 -4.9375,13.46875 a 2.5012204,2.5012204 0 0 0 -0.125,1.46875 l 4.9375,0 c 0.25689,-0.62308 2.48281,-6.08045 4.875,-13.375 2.08966,-6.37203 4.19406,-13.78119 4.875,-20.125 l 0,-7.75 c -0.73672,-5.5029 -2.90625,-10.59899 -4.9375,-15.5 -2.5,-6.03201 -4.8125,-11.75823 -4.8125,-17.46875 0,-5.71052 2.3125,-11.43674 4.8125,-17.46875 2.03125,-4.90101 4.20078,-10.02061 4.9375,-15.53125 l 0,-7.75 c -0.68094,-6.33637 -2.78534,-13.721725 -4.875,-20.09375 -2.38465,-7.271557 -4.60554,-12.717911 -4.875,-13.375 L -183,79 z" id="path5130" inkscape:connector-curvature="0"/>
        <path style="font-size:medium;font-style:normal;font-variant:normal;font-weight:normal;font-stretch:normal;text-indent:0;text-align:start;text-decoration:none;line-height:normal;letter-spacing:normal;word-spacing:normal;text-transform:none;direction:ltr;block-progression:tb;writing-mode:lr-tb;text-anchor:start;baseline-shift:baseline;color:#000000;fill:#008000;fill-opacity:1;stroke:none;stroke-width:5;marker:none;visibility:visible;display:inline;overflow:visible;enable-background:accumulate;font-family:Sans;-inkscape-font-specification:Sans" d="m -178,79 a 2.50025,2.50025 0 0 0 0.15625,1.4375 c 0,0 2.4696,5.974589 4.9375,13.5 2.00517,6.1144 3.95861,13.29561 4.625,18.84375 l 0,-20.78125 c -2.34009,-7.085593 -4.48549,-12.354982 -4.75,-13 L -178,79 z m 9.71875,40.5625 c -0.64389,4.65287 -2.53125,9.34899 -4.5625,14.25 -2.5,6.03201 -5.1875,12.38652 -5.1875,19.40625 0,7.01974 2.6875,13.34299 5.1875,19.375 2.03125,4.90101 3.91861,9.59713 4.5625,14.25 l 0,-16.3125 c -2.47479,-5.97412 -4.75,-11.6518 -4.75,-17.3125 0,-5.6607 2.27521,-11.33838 4.75,-17.3125 l 0,-16.34375 z m 0,74.0625 c -0.66639,5.55588 -2.61983,12.7606 -4.625,18.875 -2.4679,7.52541 -4.9375,13.46875 -4.9375,13.46875 a 2.5012204,2.5012204 0 0 0 -0.125,1.46875 l 4.9375,0 c 0.25218,-0.61167 2.40237,-5.89257 4.75,-13 l 0,-20.8125 z" id="path5132" inkscape:connector-curvature="0"/>
        <path style="font-size:medium;font-style:normal;font-variant:normal;font-weight:normal;font-stretch:normal;text-indent:0;text-align:start;text-decoration:none;line-height:normal;letter-spacing:normal;word-spacing:normal;text-transform:none;direction:ltr;block-progression:tb;writing-mode:lr-tb;text-anchor:start;baseline-shift:baseline;color:#000000;fill:#0000ff;fill-opacity:1;stroke:none;stroke-width:5;marker:none;visibility:visible;display:inline;overflow:visible;enable-background:accumulate;font-family:Sans;-inkscape-font-specification:Sans" d="m -173,79 a 2.50025,2.50025 0 0 0 0.15625,1.4375 c 0,0 2.22848,5.433929 4.5625,12.40625 L -168.28125,79 -173,79 z m 4.71875,55.875 c -2.36664,5.71904 -4.75,11.73043 -4.75,18.34375 0,6.61333 2.38336,12.59667 4.75,18.3125 l 0,-36.65625 z m 0,78.71875 c -2.33402,6.96941 -4.5625,12.375 -4.5625,12.375 a 2.5012204,2.5012204 0 0 0 -0.125,1.46875 l 4.6875,0 0,-13.84375 z" id="path5134" inkscape:connector-curvature="0"/>
        <path style="font-size:medium;font-style:normal;font-variant:normal;font-weight:normal;font-stretch:normal;text-indent:0;text-align:start;text-decoration:none;line-height:normal;letter-spacing:normal;word-spacing:normal;text-transform:none;direction:ltr;block-progression:tb;writing-mode:lr-tb;text-anchor:start;baseline-shift:baseline;color:#000000;fill:#ff6600;fill-opacity:1;stroke:none;stroke-width:5;marker:none;visibility:visible;display:inline;overflow:visible;enable-background:accumulate;font-family:Sans;-inkscape-font-specification:Sans" d="m -203,79 a 2.50025,2.50025 0 0 0 0.15625,1.4375 c 0,0 2.4696,5.974589 4.9375,13.5 2.4679,7.52541 4.875,16.69573 4.875,22.40625 0,5.71052 -2.3125,11.43674 -4.8125,17.46875 -2.5,6.03201 -5.1875,12.38652 -5.1875,19.40625 0,7.01974 2.6875,13.34299 5.1875,19.375 2.5,6.03201 4.8125,11.75823 4.8125,17.46875 0,5.71052 -2.4071,14.91209 -4.875,22.4375 -2.4679,7.52541 -4.9375,13.46875 -4.9375,13.46875 a 2.5012204,2.5012204 0 0 0 -0.125,1.46875 l 4.9375,0 c 0.25689,-0.62308 2.48281,-6.08045 4.875,-13.375 2.5321,-7.72118 5.125,-16.98027 5.125,-24 0,-7.01974 -2.6875,-13.34299 -5.1875,-19.375 -2.5,-6.03201 -4.8125,-11.75823 -4.8125,-17.46875 0,-5.71052 2.3125,-11.43674 4.8125,-17.46875 2.5,-6.03201 5.1875,-12.38652 5.1875,-19.40625 0,-7.01974 -2.5929,-16.24757 -5.125,-23.96875 -2.38465,-7.271557 -4.60554,-12.717911 -4.875,-13.375 L -203,79 z" id="path5140" inkscape:connector-curvature="0"/>
        <path style="font-size:medium;font-style:normal;font-variant:normal;font-weight:normal;font-stretch:normal;text-indent:0;text-align:start;text-decoration:none;line-height:normal;letter-spacing:normal;word-spacing:normal;text-transform:none;direction:ltr;block-progression:tb;writing-mode:lr-tb;text-anchor:start;baseline-shift:baseline;color:#000000;fill:#800080;fill-opacity:1;stroke:none;stroke-width:5;marker:none;visibility:visible;display:inline;overflow:visible;enable-background:accumulate;font-family:Sans;-inkscape-font-specification:Sans" d="m -208,79 a 2.50025,2.50025 0 0 0 -0.0312,0.28125 2.50025,2.50025 0 0 0 0,0.5 2.50025,2.50025 0 0 0 0.1875,0.65625 c 0,0 2.4696,5.974589 4.9375,13.5 2.4679,7.52541 4.875,16.69573 4.875,22.40625 0,5.71052 -2.3125,11.43674 -4.8125,17.46875 -2.5,6.03201 -5.1875,12.38652 -5.1875,19.40625 0,7.01974 2.6875,13.34299 5.1875,19.375 2.5,6.03201 4.8125,11.75823 4.8125,17.46875 0,5.71052 -2.4071,14.91209 -4.875,22.4375 -2.4679,7.52541 -4.9375,13.46875 -4.9375,13.46875 a 2.5012204,2.5012204 0 0 0 -0.1875,0.71875 2.5012204,2.5012204 0 0 0 0,0.5 2.5012204,2.5012204 0 0 0 0.0625,0.25 l 4.9375,0 c 0.25689,-0.62308 2.48281,-6.08045 4.875,-13.375 2.5321,-7.72118 5.125,-16.98027 5.125,-24 0,-7.01974 -2.6875,-13.34299 -5.1875,-19.375 -2.5,-6.03201 -4.8125,-11.75823 -4.8125,-17.46875 0,-5.71052 2.3125,-11.43674 4.8125,-17.46875 2.5,-6.03201 5.1875,-12.38652 5.1875,-19.40625 0,-7.01974 -2.5929,-16.24757 -5.125,-23.96875 -2.38465,-7.271557 -4.60554,-12.717911 -4.875,-13.375 L -208,79 z" id="path5142" inkscape:connector-curvature="0"/>
        <path style="font-size:medium;font-style:normal;font-variant:normal;font-weight:normal;font-stretch:normal;text-indent:0;text-align:start;text-decoration:none;line-height:normal;letter-spacing:normal;word-spacing:normal;text-transform:none;direction:ltr;block-progression:tb;writing-mode:lr-tb;text-anchor:start;baseline-shift:baseline;color:#000000;fill:#0000ff;fill-opacity:1;stroke:none;stroke-width:5;marker:none;visibility:visible;display:inline;overflow:visible;enable-background:accumulate;font-family:Sans;-inkscape-font-specification:Sans" d="m -208.03125,79 0,14.5625 c 0.0437,0.132187 0.0813,0.241817 0.125,0.375 2.4679,7.52541 4.875,16.69573 4.875,22.40625 0,5.71052 -2.3125,11.43674 -4.8125,17.46875 -0.0636,0.15344 -0.12371,0.31489 -0.1875,0.46875 l 0,18.9375 c 0,-5.71052 2.3125,-11.43674 4.8125,-17.46875 2.5,-6.03201 5.1875,-12.38652 5.1875,-19.40625 0,-7.01974 -2.5929,-16.24757 -5.125,-23.96875 -2.38465,-7.271557 -4.60554,-12.717911 -4.875,-13.375 z m 0,74.21875 0,18.90625 c 0.0638,0.15382 0.12391,0.31531 0.1875,0.46875 2.5,6.03201 4.8125,11.75823 4.8125,17.46875 0,5.71052 -2.4071,14.91209 -4.875,22.4375 -0.0437,0.13318 -0.0813,0.24283 -0.125,0.375 l 0,14.53125 c 0.27112,-0.6579 2.49134,-6.07523 4.875,-13.34375 2.5321,-7.72118 5.125,-16.98027 5.125,-24 0,-7.01974 -2.6875,-13.34299 -5.1875,-19.375 -2.5,-6.03201 -4.8125,-11.75823 -4.8125,-17.46875 z" id="path5144" inkscape:connector-curvature="0"/>
        <path style="font-size:medium;font-style:normal;font-variant:normal;font-weight:normal;font-stretch:normal;text-indent:0;text-align:start;text-decoration:none;line-height:normal;letter-spacing:normal;word-spacing:normal;text-transform:none;direction:ltr;block-progression:tb;writing-mode:lr-tb;text-anchor:start;baseline-shift:baseline;color:#000000;fill:#008000;fill-opacity:1;stroke:none;stroke-width:5;marker:none;visibility:visible;display:inline;overflow:visible;enable-background:accumulate;font-family:Sans;-inkscape-font-specification:Sans" d="m -208.03125,92.78125 0,23.5625 0,18.9375 c 2.44389,-5.89478 5,-12.09633 5,-18.9375 0,-6.89994 -2.50983,-15.9236 -5,-23.5625 z m 0,78.375 0,18.90625 0,23.59375 c 2.49017,-7.63993 5,-16.69382 5,-23.59375 0,-6.84118 -2.55611,-13.01298 -5,-18.90625 z" id="path5146" inkscape:connector-curvature="0"/>
      </g>
    </pattern>
    <linearGradient inkscape:collect="always" xlink:href="#linearGradient5330" id="linearGradient5406" gradientUnits="userSpaceOnUse" gradientTransform="matrix(0.49131613,-0.13485503,0.12933614,0.47120921,190.36182,134.49236)" x1="416.95111" y1="149.67674" x2="428.66043" y2="149.47247"/>
    <linearGradient inkscape:collect="always" xlink:href="#linearGradient5330" id="linearGradient5408" gradientUnits="userSpaceOnUse" gradientTransform="matrix(0.87283004,0,0,0.83710981,52.818907,24.280923)" x1="416.95111" y1="149.67674" x2="428.66043" y2="149.47247"/>
    <linearGradient inkscape:collect="always" xlink:href="#linearGradient5330" id="linearGradient5410" gradientUnits="userSpaceOnUse" gradientTransform="matrix(0.49131613,-0.13485503,0.12933614,0.47120921,190.36182,134.49236)" x1="416.95111" y1="149.67674" x2="428.66043" y2="149.47247"/>
    <linearGradient inkscape:collect="always" xlink:href="#linearGradient5330" id="linearGradient5412" gradientUnits="userSpaceOnUse" gradientTransform="matrix(0.87283004,0,0,0.83710981,52.818907,24.280923)" x1="416.95111" y1="149.67674" x2="428.66043" y2="149.47247"/>
    <pattern patternUnits="userSpaceOnUse" width="14.38155" height="23.672479" patternTransform="translate(412.10515,153.27993)" id="pattern5447">
      <path inkscape:connector-curvature="0" id="rect5444" d="m 0.00567248,0.00132929 14.35472952,0 0,23.67114971 -14.35472952,0 z" style="fill:#60bf00;fill-opacity:1;fill-rule:nonzero;stroke:none"/>
      <g transform="matrix(0.44017724,0,0,0.44017724,-181.39931,-54.219765)" id="g5368">
        <g id="g5344">
          <path style="fill:url(#linearGradient5406);stroke:none" d="m 417.08725,147.79305 c -8.12447,2.22999 -0.79005,-7.69785 -4.9821,-14.30153 4.27273,4.14122 11.74187,12.44613 4.9821,14.30153 z" id="path5340" inkscape:connector-curvature="0" sodipodi:nodetypes="ccc"/>
          <path sodipodi:nodetypes="ccc" inkscape:connector-curvature="0" id="path5328" d="m 421.34999,149.06314 c -14.43325,0 2.18537,-13.0755 -1.74566,-25.88602 5.18094,8.77899 13.75448,25.88602 1.74566,25.88602 z" style="fill:url(#linearGradient5408);stroke:none"/>
        </g>
        <g id="g5348" transform="translate(17.33609,27.88602)">
          <path sodipodi:nodetypes="ccc" inkscape:connector-curvature="0" id="path5350" d="m 417.08725,147.79305 c -8.12447,2.22999 -0.79005,-7.69785 -4.9821,-14.30153 4.27273,4.14122 11.74187,12.44613 4.9821,14.30153 z" style="fill:url(#linearGradient5410);stroke:none"/>
          <path style="fill:url(#linearGradient5412);stroke:none" d="m 421.34999,149.06314 c -14.43325,0 2.18537,-13.0755 -1.74566,-25.88602 5.18094,8.77899 13.75448,25.88602 1.74566,25.88602 z" id="path5352" inkscape:connector-curvature="0" sodipodi:nodetypes="ccc"/>
        </g>
      </g>
    </pattern>
    <radialGradient inkscape:collect="always" xlink:href="#linearGradient5615" id="radialGradient5647" gradientUnits="userSpaceOnUse" gradientTransform="matrix(1,-1.217947e-8,6.1061931e-8,5.0135128,-5.1389314e-6,-305.51516)" cx="202.22771" cy="84.159332" fx="202.22771" fy="84.159332" r="21.409832"/>
    <radialGradient inkscape:collect="always" xlink:href="#linearGradient5615" id="radialGradient5649" gradientUnits="userSpaceOnUse" gradientTransform="matrix(1,-1.217947e-8,6.1061931e-8,5.0135128,-5.1389314e-6,-305.51516)" cx="202.22771" cy="84.159332" fx="202.22771" fy="84.159332" r="21.409832"/>
    <linearGradient inkscape:collect="always" xlink:href="#linearGradient5330" id="linearGradient5740" gradientUnits="userSpaceOnUse" gradientTransform="matrix(0.49131613,-0.13485503,0.12933614,0.47120921,190.36182,134.49236)" x1="416.95111" y1="149.67674" x2="428.66043" y2="149.47247"/>
    <linearGradient inkscape:collect="always" xlink:href="#linearGradient5330" id="linearGradient5742" gradientUnits="userSpaceOnUse" gradientTransform="matrix(0.87283004,0,0,0.83710981,52.818907,24.280923)" x1="416.95111" y1="149.67674" x2="428.66043" y2="149.47247"/>
    <linearGradient inkscape:collect="always" xlink:href="#linearGradient5330" id="linearGradient5744" gradientUnits="userSpaceOnUse" gradientTransform="matrix(0.49131613,-0.13485503,0.12933614,0.47120921,190.36182,134.49236)" x1="416.95111" y1="149.67674" x2="428.66043" y2="149.47247"/>
    <linearGradient inkscape:collect="always" xlink:href="#linearGradient5330" id="linearGradient5746" gradientUnits="userSpaceOnUse" gradientTransform="matrix(0.87283004,0,0,0.83710981,52.818907,24.280923)" x1="416.95111" y1="149.67674" x2="428.66043" y2="149.47247"/>
    <linearGradient inkscape:collect="always" xlink:href="#linearGradient5330" id="linearGradient5754" gradientUnits="userSpaceOnUse" gradientTransform="matrix(0.49131613,-0.13485503,0.12933614,0.47120921,190.36182,134.49236)" x1="416.95111" y1="149.67674" x2="428.66043" y2="149.47247"/>
    <linearGradient inkscape:collect="always" xlink:href="#linearGradient5330" id="linearGradient5756" gradientUnits="userSpaceOnUse" gradientTransform="matrix(0.87283004,0,0,0.83710981,52.818907,24.280923)" x1="416.95111" y1="149.67674" x2="428.66043" y2="149.47247"/>
    <linearGradient inkscape:collect="always" xlink:href="#linearGradient5330" id="linearGradient5759" gradientUnits="userSpaceOnUse" gradientTransform="matrix(0.38419992,0,0,0.36847669,261.58647,122.02287)" x1="416.95111" y1="149.67674" x2="428.66043" y2="149.47247"/>
    <linearGradient inkscape:collect="always" xlink:href="#linearGradient5330" id="linearGradient5762" gradientUnits="userSpaceOnUse" gradientTransform="matrix(0.21626618,-0.05936011,0.05693083,0.20741557,322.12973,170.53544)" x1="416.95111" y1="149.67674" x2="428.66043" y2="149.47247"/>
    <linearGradient inkscape:collect="always" xlink:href="#linearGradient5330" id="linearGradient5764" gradientUnits="userSpaceOnUse" gradientTransform="matrix(0.49131613,-0.13485503,0.12933614,0.47120921,190.36182,134.49236)" x1="416.95111" y1="149.67674" x2="428.66043" y2="149.47247"/>
    <linearGradient inkscape:collect="always" xlink:href="#linearGradient5330" id="linearGradient5766" gradientUnits="userSpaceOnUse" gradientTransform="matrix(0.87283004,0,0,0.83710981,52.818907,24.280923)" x1="416.95111" y1="149.67674" x2="428.66043" y2="149.47247"/>
    <linearGradient inkscape:collect="always" xlink:href="#linearGradient5330" id="linearGradient5769" gradientUnits="userSpaceOnUse" gradientTransform="matrix(0.38419992,0,0,0.36847669,253.95552,109.74807)" x1="416.95111" y1="149.67674" x2="428.66043" y2="149.47247"/>
    <linearGradient inkscape:collect="always" xlink:href="#linearGradient5330" id="linearGradient5772" gradientUnits="userSpaceOnUse" gradientTransform="matrix(0.21626618,-0.05936011,0.05693083,0.20741557,314.49878,158.26064)" x1="416.95111" y1="149.67674" x2="428.66043" y2="149.47247"/>
    <pattern patternUnits="userSpaceOnUse" width="14.381545" height="23.66923" patternTransform="translate(412.10515,153.27993)" id="pattern5780">
      <g id="g5774" transform="translate(-412.10515,-153.27993)">
        <path sodipodi:nodetypes="ccc" inkscape:connector-curvature="0" id="path5730" d="m 414.29815,164.1153 c -3.5762,0.98159 -0.34776,-3.38842 -2.193,-6.29521 1.88076,1.82287 5.1685,5.47851 2.193,6.29521 z" style="fill:url(#linearGradient5772);stroke:none"/>
        <path style="fill:url(#linearGradient5769);stroke:none" d="m 416.17452,164.67437 c -6.35319,0 0.96195,-5.75554 -0.7684,-11.39444 2.28053,3.86431 6.0544,11.39444 0.7684,11.39444 z" id="path5732" inkscape:connector-curvature="0" sodipodi:nodetypes="ccc"/>
        <path style="fill:url(#linearGradient5762);stroke:none" d="m 421.9291,176.3901 c -3.5762,0.98159 -0.34776,-3.38842 -2.193,-6.29521 1.88076,1.82287 5.1685,5.4785 2.193,6.29521 z" id="path5736" inkscape:connector-curvature="0" sodipodi:nodetypes="ccc"/>
        <path sodipodi:nodetypes="ccc" inkscape:connector-curvature="0" id="path5738" d="m 423.80547,176.94916 c -6.35319,0 0.96195,-5.75554 -0.7684,-11.39444 2.28053,3.86432 6.0544,11.39444 0.7684,11.39444 z" style="fill:url(#linearGradient5759);stroke:none"/>
      </g>
    </pattern>
    <radialGradient inkscape:collect="always" xlink:href="#linearGradient5615" id="radialGradient5918" gradientUnits="userSpaceOnUse" gradientTransform="matrix(1,-1.217947e-8,6.1061931e-8,5.0135128,-5.1389314e-6,-305.51516)" cx="202.22771" cy="84.159332" fx="202.22771" fy="84.159332" r="21.409832"/>
    <radialGradient inkscape:collect="always" xlink:href="#linearGradient5615" id="radialGradient5920" gradientUnits="userSpaceOnUse" gradientTransform="matrix(1,-1.217947e-8,6.1061931e-8,5.0135128,-5.1389314e-6,-305.51516)" cx="202.22771" cy="84.159332" fx="202.22771" fy="84.159332" r="21.409832"/>
  </defs>
  <sodipodi:namedview pagecolor="#ffffff" bordercolor="#666666" borderopacity="1" objecttolerance="10" gridtolerance="10" guidetolerance="10" inkscape:pageopacity="0" inkscape:pageshadow="2" inkscape:window-width="1920" inkscape:window-height="1018" id="namedview4" showgrid="false" inkscape:zoom="0.52050476" inkscape:cx="465.02014" inkscape:cy="70.520088" inkscape:window-x="-8" inkscape:window-y="-8" inkscape:window-maximized="1" inkscape:current-layer="svg2" inkscape:snap-bbox="true" inkscape:bbox-paths="true" inkscape:bbox-nodes="true" inkscape:snap-bbox-edge-midpoints="true" inkscape:snap-bbox-midpoints="true" inkscape:object-paths="true" inkscape:snap-intersection-paths="true" inkscape:object-nodes="true" inkscape:snap-smooth-nodes="true" inkscape:snap-midpoints="true" inkscape:snap-object-midpoints="true" inkscape:snap-center="true" inkscape:snap-global="true" fit-margin-top="0" fit-margin-left="0" fit-margin-right="0" fit-margin-bottom="0"/>
  <g id="g5829" transform="matrix(2.7102381,0,0,2.7102381,-37.876075,-23.70302)">
    <g id="g5667">
      <g id="g5582" transform="translate(0,1.368571)">
        <path inkscape:connector-curvature="0" id="path2995" d="m 52.36927,9.501928 c 9.5489,6.155365 9.02752,26.967589 -0.375,48.40625 -4.53164,12.660019 2.60595,34.53079 0.34375,45.656242 -2.33217,8.75804 -13.77084,13.12221 -22.28125,9.62501 8.60201,5.1851 21.76015,0.84252 24.28125,-8.62501 2.2622,-11.125452 -4.87539,-32.996223 -0.34375,-45.656242 10.02044,-22.847598 9.96927,-44.963854 -1.625,-49.40625 z" style="fill:#008000;fill-opacity:1;stroke:#000000;stroke-width:0.60000002;stroke-linecap:butt;stroke-linejoin:miter;stroke-miterlimit:4;stroke-opacity:1;stroke-dasharray:none"/>
        <path sodipodi:nodetypes="cccccc" inkscape:connector-curvature="0" id="path2987" d="m 21.73326,104.24475 c 5.50509,15.39034 27.28846,11.79528 30.60955,-0.67645 C 54.60501,92.442848 47.47294,70.567678 52.00458,57.907659 63.29522,32.163887 61.79649,7.3250705 45.40915,7.6809411 20.50855,8.3232417 13.97485,31.696647 18.35099,59.429681 c 2.98194,15.203291 1.16684,38.346081 3.38227,44.815069 z" style="fill:#00e500;fill-opacity:1;stroke:none"/>
        <path style="fill:url(#pattern5578);fill-opacity:1;stroke:#000000;stroke-width:0.60000002;stroke-miterlimit:4;stroke-opacity:1;stroke-dasharray:none" d="m 21.73326,104.24475 c 5.50509,15.39034 27.28846,11.79528 30.60955,-0.67645 C 54.60501,92.442848 47.47294,70.567678 52.00458,57.907659 63.29522,32.163887 61.79649,7.3250705 45.40915,7.6809411 20.50855,8.3232417 13.97485,31.696647 18.35099,59.429681 c 2.98194,15.203291 1.16684,38.346081 3.38227,44.815069 z" id="path4560" inkscape:connector-curvature="0" sodipodi:nodetypes="cccccc"/>
        <path sodipodi:nodetypes="csc" inkscape:connector-curvature="0" id="path2989" d="M 52.79999,49.83373 C 57.4395,69.255026 48.05757,85.361593 42.14583,79.597712 36.33001,73.927339 55.01022,67.833473 52.79999,49.83373 z" style="fill:#008000;fill-opacity:1;stroke:#000000;stroke-width:0.60000002;stroke-linecap:butt;stroke-linejoin:miter;stroke-miterlimit:4;stroke-opacity:1;stroke-dasharray:none"/>
        <path sodipodi:nodetypes="scs" inkscape:connector-curvature="0" id="path2991" d="M 24.55803,77.737462 C 20.53044,82.337739 12.95274,67.710971 16.44058,55.414477 16.13196,66.068629 28.42143,73.324721 24.55803,77.737462 z" style="fill:#008000;fill-opacity:1;stroke:#000000;stroke-width:0.60000002;stroke-linecap:butt;stroke-linejoin:miter;stroke-miterlimit:4;stroke-opacity:1;stroke-dasharray:none"/>
        <path sodipodi:nodetypes="ccscccc" inkscape:connector-curvature="0" id="path2993" d="M 52.63087,70.803808 C 58.79815,50.086784 58.8813,32.66533 43.49874,23.621133 c 1.6293,-0.973086 1.64546,-2.911032 0.5956,-3.466298 -1.27517,-0.674436 -3.59172,1.741957 -4.82343,2.451617 C 6.53284,36.995555 14.76952,60.421441 16.35232,68.859531 13.81416,50.188059 22.30521,39.099386 39.94736,29.032766 52.88474,40.65098 55.88628,54.051577 52.63087,70.803808 z" style="fill:#00bf00;fill-opacity:1;stroke:#000000;stroke-width:0.60000002;stroke-linecap:butt;stroke-linejoin:miter;stroke-miterlimit:4;stroke-opacity:1;stroke-dasharray:none"/>
      </g>
      <g id="g5565" transform="translate(1.6160638,2.1062787)">
        <rect id="rect3818" y="43.910294" x="84.231239" height="12.629862" width="12.38727" style="fill:none;stroke:none"/>
        <path style="fill:#008000;fill-opacity:1;stroke:#000000;stroke-width:0.60000002;stroke-linecap:butt;stroke-linejoin:miter;stroke-miterlimit:4;stroke-opacity:1;stroke-dasharray:none" d="m 75.213632,8.7642224 c -9.5489,6.1553646 -9.02752,26.9675886 0.375,48.4062496 4.53164,12.660019 -2.60595,34.53079 -0.34375,45.656248 2.33217,8.75803 13.77084,13.1222 22.28125,9.625 -8.60201,5.1851 -21.76015,0.84252 -24.28125,-8.625 -2.2622,-11.125458 4.87539,-32.996229 0.34375,-45.656248 -10.02044,-22.847598 -9.96927,-44.963854 1.625,-49.4062496 z" id="path4577" inkscape:connector-curvature="0"/>
        <path style="fill:#00e500;fill-opacity:1;stroke:none" d="m 105.84964,103.50705 c -5.50509,15.39033 -27.288458,11.79527 -30.609548,-0.67645 -2.2622,-11.125458 4.86987,-33.000628 0.33823,-45.660647 -11.29064,-25.743772 -9.79191,-50.5825881 6.59543,-50.2267175 24.900598,0.6423006 31.434298,24.0157055 27.058158,51.7487395 -2.98194,15.203291 -1.16684,38.346081 -3.38227,44.815075 z" id="path4579" inkscape:connector-curvature="0" sodipodi:nodetypes="cccccc"/>
        <path sodipodi:nodetypes="cccccc" inkscape:connector-curvature="0" id="path4581" d="m 105.84964,103.50705 c -5.50509,15.39033 -27.288458,11.79527 -30.609548,-0.67645 -2.2622,-11.125458 4.86987,-33.000628 0.33823,-45.660647 -11.29064,-25.743772 -9.79191,-50.5825881 6.59543,-50.2267175 24.900598,0.6423006 31.434298,24.0157055 27.058158,51.7487395 -2.98194,15.203291 -1.16684,38.346081 -3.38227,44.815075 z" style="fill:url(#pattern5561);fill-opacity:1;stroke:#000000;stroke-width:0.60000002;stroke-miterlimit:4;stroke-opacity:1;stroke-dasharray:none"/>
        <path style="fill:#008000;fill-opacity:1;stroke:#000000;stroke-width:0.60000002;stroke-linecap:butt;stroke-linejoin:miter;stroke-miterlimit:4;stroke-opacity:1;stroke-dasharray:none" d="m 74.782912,49.096024 c -4.63951,19.421296 4.74242,35.527863 10.65416,29.763982 5.81582,-5.670373 -12.86439,-11.764239 -10.65416,-29.763982 z" id="path4583" inkscape:connector-curvature="0" sodipodi:nodetypes="csc"/>
        <path style="fill:#008000;fill-opacity:1;stroke:#000000;stroke-width:0.60000002;stroke-linecap:butt;stroke-linejoin:miter;stroke-miterlimit:4;stroke-opacity:1;stroke-dasharray:none" d="m 103.02487,76.999756 c 4.02759,4.600277 11.60529,-10.026491 8.11745,-22.322985 0.30862,10.654152 -11.980848,17.910244 -8.11745,22.322985 z" id="path4585" inkscape:connector-curvature="0" sodipodi:nodetypes="scs"/>
        <path style="fill:#00bf00;fill-opacity:1;stroke:#000000;stroke-width:0.60000002;stroke-linecap:butt;stroke-linejoin:miter;stroke-miterlimit:4;stroke-opacity:1;stroke-dasharray:none" d="m 74.952032,70.066102 c -6.16728,-20.717024 -6.25043,-38.138478 9.13213,-47.182675 -1.6293,-0.973086 -1.64546,-2.911032 -0.5956,-3.466298 1.27517,-0.674436 3.59172,1.741957 4.82343,2.451617 C 121.05006,36.257849 112.81338,59.683735 111.23058,68.121825 113.76874,49.450353 105.27769,38.36168 87.635542,28.29506 74.698162,39.913274 71.696622,53.313871 74.952032,70.066102 z" id="path4587" inkscape:connector-curvature="0" sodipodi:nodetypes="ccscccc"/>
      </g>
    </g>
    <g id="g5684">
      <g id="g5283">
        <path style="fill:#0080ff;fill-opacity:1;stroke:#000000;stroke-width:0.60000002;stroke-linecap:butt;stroke-linejoin:miter;stroke-miterlimit:4;stroke-opacity:1;stroke-dasharray:none" d="m 276.20316,11.218852 c 9.5489,6.155365 9.02752,26.967589 -0.375,48.40625 -4.53164,12.660017 2.60595,34.530787 0.34375,45.656248 -2.33217,8.75803 -13.77084,13.1222 -22.28125,9.625 8.60201,5.1851 21.76015,0.84252 24.28125,-8.625 2.2622,-11.125461 -4.87539,-32.996231 -0.34375,-45.656248 10.02044,-22.847598 9.96927,-44.963854 -1.625,-49.40625 z" id="path3003" inkscape:connector-curvature="0"/>
        <path sodipodi:nodetypes="cccccc" inkscape:connector-curvature="0" id="path3007" d="m 245.56715,105.96168 c 5.50509,15.39033 27.28846,11.79527 30.60955,-0.67645 2.2622,-11.125461 -4.86987,-33.000631 -0.33823,-45.660647 11.29064,-25.743772 9.79191,-50.582589 -6.59543,-50.226718 -24.9006,0.642301 -31.4343,24.015706 -27.05816,51.748744 2.98194,15.20329 1.16684,38.34608 3.38227,44.815071 z" style="fill:url(#pattern5280);fill-opacity:1;stroke:#000000;stroke-width:0.60000002;stroke-miterlimit:4;stroke-opacity:1;stroke-dasharray:none"/>
        <path style="fill:#0099bf;fill-opacity:1;stroke:#000000;stroke-width:0.60000002;stroke-linecap:butt;stroke-linejoin:miter;stroke-miterlimit:4;stroke-opacity:1;stroke-dasharray:none" d="m 276.63388,51.550654 c 4.63951,19.421295 -4.74242,35.527865 -10.65416,29.763985 -5.81582,-5.67038 12.86439,-11.76424 10.65416,-29.763985 z" id="path3009" inkscape:connector-curvature="0" sodipodi:nodetypes="csc"/>
        <path style="fill:#0099bf;fill-opacity:1;stroke:#000000;stroke-width:0.60000002;stroke-linecap:butt;stroke-linejoin:miter;stroke-miterlimit:4;stroke-opacity:1;stroke-dasharray:none" d="m 248.39192,79.454389 c -4.02759,4.60027 -11.60529,-10.02649 -8.11745,-22.322988 -0.30862,10.654148 11.98085,17.910248 8.11745,22.322988 z" id="path3011" inkscape:connector-curvature="0" sodipodi:nodetypes="scs"/>
        <path style="fill:#00ccff;fill-opacity:1;stroke:#000000;stroke-width:0.60000002;stroke-linecap:butt;stroke-linejoin:miter;stroke-miterlimit:4;stroke-opacity:1;stroke-dasharray:none" d="m 276.46476,72.520729 c 6.16728,-20.717021 6.25043,-38.138474 -9.13213,-47.182672 1.6293,-0.973086 1.64546,-2.911032 0.5956,-3.466298 -1.27517,-0.674436 -3.59172,1.741957 -4.82343,2.451617 -32.73807,14.389103 -24.50139,37.814993 -22.91859,46.253083 -2.53816,-18.671476 5.95289,-29.760149 23.59504,-39.826769 12.93738,11.618215 15.93892,25.018811 12.68351,41.771039 z" id="path3013" inkscape:connector-curvature="0" sodipodi:nodetypes="ccscccc"/>
      </g>
      <g id="g5269">
        <path inkscape:connector-curvature="0" id="path4842" d="m 300.66359,11.218852 c -9.5489,6.155365 -9.02752,26.967589 0.375,48.40625 4.53164,12.660017 -2.60595,34.530787 -0.34375,45.656248 2.33217,8.75803 13.77084,13.1222 22.28125,9.625 -8.60201,5.1851 -21.76015,0.84252 -24.28125,-8.625 -2.2622,-11.125461 4.87539,-32.996231 0.34375,-45.656248 -10.02044,-22.847598 -9.96927,-44.963854 1.625,-49.40625 z" style="fill:#0080ff;fill-opacity:1;stroke:#000000;stroke-width:0.60000002;stroke-linecap:butt;stroke-linejoin:miter;stroke-miterlimit:4;stroke-opacity:1;stroke-dasharray:none"/>
        <path style="fill:url(#pattern5266);fill-opacity:1;stroke:#000000;stroke-width:0.60000002;stroke-miterlimit:4;stroke-opacity:1;stroke-dasharray:none" d="m 331.2996,105.96168 c -5.50509,15.39033 -27.28846,11.79527 -30.60955,-0.67645 -2.2622,-11.125461 4.86987,-33.000631 0.33823,-45.660647 -11.29064,-25.743772 -9.79191,-50.582589 6.59543,-50.226718 24.9006,0.642301 31.4343,24.015706 27.05816,51.748744 -2.98194,15.20329 -1.16684,38.34608 -3.38227,44.815071 z" id="path4846" inkscape:connector-curvature="0" sodipodi:nodetypes="cccccc"/>
        <path sodipodi:nodetypes="csc" inkscape:connector-curvature="0" id="path4848" d="m 300.23287,51.550654 c -4.63951,19.421295 4.74242,35.527865 10.65416,29.763985 5.81582,-5.67038 -12.86439,-11.76424 -10.65416,-29.763985 z" style="fill:#0099bf;fill-opacity:1;stroke:#000000;stroke-width:0.60000002;stroke-linecap:butt;stroke-linejoin:miter;stroke-miterlimit:4;stroke-opacity:1;stroke-dasharray:none"/>
        <path sodipodi:nodetypes="scs" inkscape:connector-curvature="0" id="path4850" d="m 328.47483,79.454389 c 4.02759,4.60027 11.60529,-10.02649 8.11745,-22.322988 0.30862,10.654148 -11.98085,17.910248 -8.11745,22.322988 z" style="fill:#0099bf;fill-opacity:1;stroke:#000000;stroke-width:0.60000002;stroke-linecap:butt;stroke-linejoin:miter;stroke-miterlimit:4;stroke-opacity:1;stroke-dasharray:none"/>
        <path sodipodi:nodetypes="ccscccc" inkscape:connector-curvature="0" id="path4852" d="m 300.40199,72.520729 c -6.16728,-20.717021 -6.25043,-38.138474 9.13213,-47.182672 -1.6293,-0.973086 -1.64546,-2.911032 -0.5956,-3.466298 1.27517,-0.674436 3.59172,1.741957 4.82343,2.451617 32.73807,14.389103 24.50139,37.814993 22.91859,46.253083 C 339.2187,51.904983 330.72765,40.81631 313.0855,30.74969 300.14812,42.367905 297.14658,55.768501 300.40199,72.520729 z" style="fill:#00ccff;fill-opacity:1;stroke:#000000;stroke-width:0.60000002;stroke-linecap:butt;stroke-linejoin:miter;stroke-miterlimit:4;stroke-opacity:1;stroke-dasharray:none"/>
      </g>
    </g>
    <g transform="translate(-288.49164,43.388859)" id="g4971">
      <g id="g4949">
        <path inkscape:connector-curvature="0" id="path4872" d="m 477.10841,82.72712 c -9.5489,6.155365 -9.02752,26.96759 0.375,48.40625 4.53164,12.66002 -2.60595,34.53079 -0.34375,45.65624 2.33217,8.75804 13.77084,13.12221 22.28125,9.62501 -8.60201,5.1851 -21.76015,0.84252 -24.28125,-8.62501 -2.2622,-11.12545 4.87539,-32.99622 0.34375,-45.65624 -10.02044,-22.8476 -9.96927,-44.963854 1.625,-49.40625 z" style="fill:#aa0000;fill-opacity:1;stroke:#000000;stroke-width:0.60000002;stroke-linecap:butt;stroke-linejoin:miter;stroke-miterlimit:4;stroke-opacity:1;stroke-dasharray:none"/>
        <path sodipodi:nodetypes="cccccc" inkscape:connector-curvature="0" id="path4874" d="m 507.74442,177.46994 c -5.50509,15.39034 -27.28846,11.79528 -30.60955,-0.67645 -2.2622,-11.12545 4.86987,-33.00062 0.33823,-45.66064 -11.29064,-25.74377 -9.79191,-50.582587 6.59543,-50.226717 24.9006,0.642301 31.4343,24.015707 27.05816,51.748737 -2.98194,15.20329 -1.16684,38.34608 -3.38227,44.81507 z" style="fill:#ff8080;fill-opacity:1;stroke:none"/>
        <path style="fill:url(#pattern4926);fill-opacity:1;stroke:#000000;stroke-width:0.60000002;stroke-miterlimit:4;stroke-opacity:1;stroke-dasharray:none" d="m 507.74442,177.46994 c -5.50509,15.39034 -27.28846,11.79528 -30.60955,-0.67645 -2.2622,-11.12545 4.86987,-33.00062 0.33823,-45.66064 -11.29064,-25.74377 -9.79191,-50.582587 6.59543,-50.226717 24.9006,0.642301 31.4343,24.015707 27.05816,51.748737 -2.98194,15.20329 -1.16684,38.34608 -3.38227,44.81507 z" id="path4876" inkscape:connector-curvature="0" sodipodi:nodetypes="cccccc"/>
        <path sodipodi:nodetypes="csc" inkscape:connector-curvature="0" id="path4878" d="m 476.67769,123.05892 c -4.63951,19.4213 4.74242,35.52786 10.65416,29.76398 5.81582,-5.67037 -12.86439,-11.76424 -10.65416,-29.76398 z" style="fill:#aa0000;fill-opacity:1;stroke:#000000;stroke-width:0.60000002;stroke-linecap:butt;stroke-linejoin:miter;stroke-miterlimit:4;stroke-opacity:1;stroke-dasharray:none"/>
        <path sodipodi:nodetypes="scs" inkscape:connector-curvature="0" id="path4880" d="m 504.91965,150.96265 c 4.02759,4.60028 11.60529,-10.02649 8.11745,-22.32298 0.30862,10.65415 -11.98085,17.91024 -8.11745,22.32298 z" style="fill:#aa0000;fill-opacity:1;stroke:#000000;stroke-width:0.60000002;stroke-linecap:butt;stroke-linejoin:miter;stroke-miterlimit:4;stroke-opacity:1;stroke-dasharray:none"/>
        <path sodipodi:nodetypes="ccscccc" inkscape:connector-curvature="0" id="path4882" d="m 476.84681,144.029 c -6.16728,-20.71702 -6.25043,-38.13848 9.13213,-47.182675 -1.6293,-0.973086 -1.64546,-2.911032 -0.5956,-3.466298 1.27517,-0.674436 3.59172,1.741957 4.82343,2.451617 32.73807,14.389106 24.50139,37.814986 22.91859,46.253076 2.53816,-18.67147 -5.95289,-29.76014 -23.59504,-39.82676 -12.93738,11.61821 -15.93892,25.01881 -12.68351,41.77104 z" style="fill:#ff0000;fill-opacity:1;stroke:#000000;stroke-width:0.60000002;stroke-linecap:butt;stroke-linejoin:miter;stroke-miterlimit:4;stroke-opacity:1;stroke-dasharray:none"/>
      </g>
      <g id="g4957" transform="matrix(-1,0,0,1,929.75639,0)">
        <path style="fill:#aa0000;fill-opacity:1;stroke:#000000;stroke-width:0.60000002;stroke-linecap:butt;stroke-linejoin:miter;stroke-miterlimit:4;stroke-opacity:1;stroke-dasharray:none" d="m 477.10841,82.72712 c -9.5489,6.155365 -9.02752,26.96759 0.375,48.40625 4.53164,12.66002 -2.60595,34.53079 -0.34375,45.65624 2.33217,8.75804 13.77084,13.12221 22.28125,9.62501 -8.60201,5.1851 -21.76015,0.84252 -24.28125,-8.62501 -2.2622,-11.12545 4.87539,-32.99622 0.34375,-45.65624 -10.02044,-22.8476 -9.96927,-44.963854 1.625,-49.40625 z" id="path4959" inkscape:connector-curvature="0"/>
        <path style="fill:#ff8080;fill-opacity:1;stroke:none" d="m 507.74442,177.46994 c -5.50509,15.39034 -27.28846,11.79528 -30.60955,-0.67645 -2.2622,-11.12545 4.86987,-33.00062 0.33823,-45.66064 -11.29064,-25.74377 -9.79191,-50.582587 6.59543,-50.226717 24.9006,0.642301 31.4343,24.015707 27.05816,51.748737 -2.98194,15.20329 -1.16684,38.34608 -3.38227,44.81507 z" id="path4961" inkscape:connector-curvature="0" sodipodi:nodetypes="cccccc"/>
        <path sodipodi:nodetypes="cccccc" inkscape:connector-curvature="0" id="path4963" d="m 507.74442,177.46994 c -5.50509,15.39034 -27.28846,11.79528 -30.60955,-0.67645 -2.2622,-11.12545 4.86987,-33.00062 0.33823,-45.66064 -11.29064,-25.74377 -9.79191,-50.582587 6.59543,-50.226717 24.9006,0.642301 31.4343,24.015707 27.05816,51.748737 -2.98194,15.20329 -1.16684,38.34608 -3.38227,44.81507 z" style="fill:url(#pattern4926);fill-opacity:1;stroke:#000000;stroke-width:0.60000002;stroke-miterlimit:4;stroke-opacity:1;stroke-dasharray:none"/>
        <path style="fill:#aa0000;fill-opacity:1;stroke:#000000;stroke-width:0.60000002;stroke-linecap:butt;stroke-linejoin:miter;stroke-miterlimit:4;stroke-opacity:1;stroke-dasharray:none" d="m 476.67769,123.05892 c -4.63951,19.4213 4.74242,35.52786 10.65416,29.76398 5.81582,-5.67037 -12.86439,-11.76424 -10.65416,-29.76398 z" id="path4965" inkscape:connector-curvature="0" sodipodi:nodetypes="csc"/>
        <path style="fill:#aa0000;fill-opacity:1;stroke:#000000;stroke-width:0.60000002;stroke-linecap:butt;stroke-linejoin:miter;stroke-miterlimit:4;stroke-opacity:1;stroke-dasharray:none" d="m 504.91965,150.96265 c 4.02759,4.60028 11.60529,-10.02649 8.11745,-22.32298 0.30862,10.65415 -11.98085,17.91024 -8.11745,22.32298 z" id="path4967" inkscape:connector-curvature="0" sodipodi:nodetypes="scs"/>
        <path style="fill:#ff0000;fill-opacity:1;stroke:#000000;stroke-width:0.60000002;stroke-linecap:butt;stroke-linejoin:miter;stroke-miterlimit:4;stroke-opacity:1;stroke-dasharray:none" d="m 476.84681,144.029 c -6.16728,-20.71702 -6.25043,-38.13848 9.13213,-47.182675 -1.6293,-0.973086 -1.64546,-2.911032 -0.5956,-3.466298 1.27517,-0.674436 3.59172,1.741957 4.82343,2.451617 32.73807,14.389106 24.50139,37.814986 22.91859,46.253076 2.53816,-18.67147 -5.95289,-29.76014 -23.59504,-39.82676 -12.93738,11.61821 -15.93892,25.01881 -12.68351,41.77104 z" id="path4969" inkscape:connector-curvature="0" sodipodi:nodetypes="ccscccc"/>
      </g>
    </g>
    <g transform="translate(97.714314,28.38235)" id="g5248">
      <g id="g5229">
        <path inkscape:connector-curvature="0" id="path5212" d="m -45.3289,97.415488 c 9.5489,6.155362 9.02752,26.967592 -0.375,48.406252 -4.53164,12.66001 2.60595,34.53079 0.34375,45.65625 -2.33217,8.75803 -13.77084,13.1222 -22.28125,9.625 8.60201,5.1851 21.76015,0.84252 24.28125,-8.625 2.2622,-11.12546 -4.87539,-32.99623 -0.34375,-45.65625 10.02044,-22.8476 9.96927,-44.96386 -1.625,-49.406252 z" style="fill:#400040;fill-opacity:1;stroke:#000000;stroke-width:0.60000002;stroke-linecap:butt;stroke-linejoin:miter;stroke-miterlimit:4;stroke-opacity:1;stroke-dasharray:none"/>
        <path style="fill:url(#pattern5195);fill-opacity:1;stroke:#000000;stroke-width:0.60000002;stroke-miterlimit:4;stroke-opacity:1;stroke-dasharray:none" d="m -75.96491,192.15832 c 5.50509,15.39033 27.28846,11.79527 30.60955,-0.67645 2.2622,-11.12547 -4.86987,-33.00064 -0.33823,-45.66065 11.29064,-25.74377 9.79191,-50.58259 -6.59543,-50.226719 -24.9006,0.642301 -31.4343,24.015709 -27.05816,51.748739 2.98194,15.20329 1.16684,38.34608 3.38227,44.81508 z" id="path5214" inkscape:connector-curvature="0" sodipodi:nodetypes="cccccc"/>
        <path sodipodi:nodetypes="csc" inkscape:connector-curvature="0" id="path5216" d="m -44.89818,137.74729 c 4.63951,19.42129 -4.74242,35.52786 -10.65416,29.76398 -5.81582,-5.67038 12.86439,-11.76424 10.65416,-29.76398 z" style="fill:#400040;fill-opacity:1;stroke:#000000;stroke-width:0.60000002;stroke-linecap:butt;stroke-linejoin:miter;stroke-miterlimit:4;stroke-opacity:1;stroke-dasharray:none"/>
        <path sodipodi:nodetypes="scs" inkscape:connector-curvature="0" id="path5218" d="m -73.14014,165.65102 c -4.02759,4.60027 -11.60529,-10.02649 -8.11745,-22.32298 -0.30862,10.65415 11.98085,17.91025 8.11745,22.32298 z" style="fill:#400040;fill-opacity:1;stroke:#000000;stroke-width:0.60000002;stroke-linecap:butt;stroke-linejoin:miter;stroke-miterlimit:4;stroke-opacity:1;stroke-dasharray:none"/>
        <path sodipodi:nodetypes="ccscccc" inkscape:connector-curvature="0" id="path5220" d="m -45.0673,158.71736 c 6.16728,-20.71702 6.25043,-38.13847 -9.13213,-47.18267 1.6293,-0.97308 1.64546,-2.91103 0.5956,-3.46629 -1.27517,-0.67444 -3.59172,1.74195 -4.82343,2.45161 -32.73807,14.38911 -24.50139,37.81499 -22.91859,46.25308 -2.53816,-18.67147 5.95289,-29.76014 23.59504,-39.82676 12.93738,11.61821 15.93892,25.01881 12.68351,41.77103 z" style="fill:#800080;fill-opacity:1;stroke:#000000;stroke-width:0.60000002;stroke-linecap:butt;stroke-linejoin:miter;stroke-miterlimit:4;stroke-opacity:1;stroke-dasharray:none"/>
      </g>
      <g id="g5236" transform="matrix(-1,0,0,1,-68.188011,-0.49422522)">
        <path style="fill:#400040;fill-opacity:1;stroke:#000000;stroke-width:0.60000002;stroke-linecap:butt;stroke-linejoin:miter;stroke-miterlimit:4;stroke-opacity:1;stroke-dasharray:none" d="m -45.3289,97.415488 c 9.5489,6.155362 9.02752,26.967592 -0.375,48.406252 -4.53164,12.66001 2.60595,34.53079 0.34375,45.65625 -2.33217,8.75803 -13.77084,13.1222 -22.28125,9.625 8.60201,5.1851 21.76015,0.84252 24.28125,-8.625 2.2622,-11.12546 -4.87539,-32.99623 -0.34375,-45.65625 10.02044,-22.8476 9.96927,-44.96386 -1.625,-49.406252 z" id="path5238" inkscape:connector-curvature="0"/>
        <path sodipodi:nodetypes="cccccc" inkscape:connector-curvature="0" id="path5240" d="m -75.96491,192.15832 c 5.50509,15.39033 27.28846,11.79527 30.60955,-0.67645 2.2622,-11.12547 -4.86987,-33.00064 -0.33823,-45.66065 11.29064,-25.74377 9.79191,-50.58259 -6.59543,-50.226719 -24.9006,0.642301 -31.4343,24.015709 -27.05816,51.748739 2.98194,15.20329 1.16684,38.34608 3.38227,44.81508 z" style="fill:url(#pattern5195);fill-opacity:1;stroke:#000000;stroke-width:0.60000002;stroke-miterlimit:4;stroke-opacity:1;stroke-dasharray:none"/>
        <path style="fill:#400040;fill-opacity:1;stroke:#000000;stroke-width:0.60000002;stroke-linecap:butt;stroke-linejoin:miter;stroke-miterlimit:4;stroke-opacity:1;stroke-dasharray:none" d="m -44.89818,137.74729 c 4.63951,19.42129 -4.74242,35.52786 -10.65416,29.76398 -5.81582,-5.67038 12.86439,-11.76424 10.65416,-29.76398 z" id="path5242" inkscape:connector-curvature="0" sodipodi:nodetypes="csc"/>
        <path style="fill:#400040;fill-opacity:1;stroke:#000000;stroke-width:0.60000002;stroke-linecap:butt;stroke-linejoin:miter;stroke-miterlimit:4;stroke-opacity:1;stroke-dasharray:none" d="m -73.14014,165.65102 c -4.02759,4.60027 -11.60529,-10.02649 -8.11745,-22.32298 -0.30862,10.65415 11.98085,17.91025 8.11745,22.32298 z" id="path5244" inkscape:connector-curvature="0" sodipodi:nodetypes="scs"/>
        <path style="fill:#800080;fill-opacity:1;stroke:#000000;stroke-width:0.60000002;stroke-linecap:butt;stroke-linejoin:miter;stroke-miterlimit:4;stroke-opacity:1;stroke-dasharray:none" d="m -45.0673,158.71736 c 6.16728,-20.71702 6.25043,-38.13847 -9.13213,-47.18267 1.6293,-0.97308 1.64546,-2.91103 0.5956,-3.46629 -1.27517,-0.67444 -3.59172,1.74195 -4.82343,2.45161 -32.73807,14.38911 -24.50139,37.81499 -22.91859,46.25308 -2.53816,-18.67147 5.95289,-29.76014 23.59504,-39.82676 12.93738,11.61821 15.93892,25.01881 12.68351,41.77103 z" id="path5246" inkscape:connector-curvature="0" sodipodi:nodetypes="ccscccc"/>
      </g>
    </g>
    <g id="g5651">
      <g id="g5625" transform="translate(0,-0.08761745)">
        <rect style="fill:none;stroke:none" width="12.38727" height="12.629862" x="197.07506" y="46.351101" id="rect5592"/>
        <path sodipodi:nodetypes="cccccc" inkscape:connector-curvature="0" id="path5596" d="m 218.69346,105.94786 c -5.50509,15.39033 -27.28846,11.79527 -30.60955,-0.67645 -2.2622,-11.125459 4.86987,-33.000629 0.33823,-45.660648 -11.29064,-25.743772 -9.79191,-50.5825881 6.59543,-50.2267175 24.9006,0.6423005 31.4343,24.0157055 27.05816,51.7487395 -2.98194,15.203291 -1.16684,38.346081 -3.38227,44.815076 z" style="fill:url(#radialGradient5918);fill-opacity:1;stroke:#000000;stroke-width:0.60000002;stroke-miterlimit:4;stroke-opacity:1;stroke-dasharray:none"/>
        <path inkscape:connector-curvature="0" id="path5594" d="m 188.05745,11.205031 c -9.5489,6.155365 -9.02752,26.967589 0.375,48.40625 4.53164,12.660019 -2.60595,34.53079 -0.34375,45.656249 2.33217,8.75803 13.77084,13.1222 22.28125,9.625 -8.60201,5.1851 -21.76015,0.84252 -24.28125,-8.625 -2.2622,-11.125459 4.87539,-32.99623 0.34375,-45.656249 -10.02044,-22.847598 -9.96927,-44.963854 1.625,-49.40625 z" style="fill:#bf6000;fill-opacity:1;stroke:#000000;stroke-width:0.60000002;stroke-linecap:butt;stroke-linejoin:miter;stroke-miterlimit:4;stroke-opacity:1;stroke-dasharray:none"/>
        <path sodipodi:nodetypes="csc" inkscape:connector-curvature="0" id="path5600" d="m 187.62673,51.536833 c -4.63951,19.421296 4.74242,35.527863 10.65416,29.763982 5.81582,-5.670373 -12.86439,-11.764239 -10.65416,-29.763982 z" style="fill:#bf6000;fill-opacity:1;stroke:#000000;stroke-width:0.60000002;stroke-linecap:butt;stroke-linejoin:miter;stroke-miterlimit:4;stroke-opacity:1;stroke-dasharray:none"/>
        <path sodipodi:nodetypes="scs" inkscape:connector-curvature="0" id="path5602" d="m 215.86869,79.440565 c 4.02759,4.600277 11.60529,-10.026491 8.11745,-22.322985 0.30862,10.654152 -11.98085,17.910244 -8.11745,22.322985 z" style="fill:#bf6000;fill-opacity:1;stroke:#000000;stroke-width:0.60000002;stroke-linecap:butt;stroke-linejoin:miter;stroke-miterlimit:4;stroke-opacity:1;stroke-dasharray:none"/>
        <path sodipodi:nodetypes="ccscccc" inkscape:connector-curvature="0" id="path5604" d="m 187.79585,72.506911 c -6.16728,-20.717024 -6.25043,-38.138478 9.13213,-47.182675 -1.6293,-0.973086 -1.64546,-2.911032 -0.5956,-3.466298 1.27517,-0.674436 3.59172,1.741957 4.82343,2.451617 32.73807,14.389103 24.50139,37.814989 22.91859,46.253079 2.53816,-18.671472 -5.95289,-29.760145 -23.59504,-39.826765 -12.93738,11.618214 -15.93892,25.018811 -12.68351,41.771042 z" style="fill:#ff8000;fill-opacity:1;stroke:#000000;stroke-width:0.60000002;stroke-linecap:butt;stroke-linejoin:miter;stroke-miterlimit:4;stroke-opacity:1;stroke-dasharray:none"/>
      </g>
      <g id="g5633" transform="matrix(-1,0,0,1,351.65447,-0.08761745)">
        <rect id="rect5635" y="46.351101" x="197.07506" height="12.629862" width="12.38727" style="fill:none;stroke:none"/>
        <path style="fill:url(#radialGradient5920);fill-opacity:1;stroke:#000000;stroke-width:0.60000002;stroke-miterlimit:4;stroke-opacity:1;stroke-dasharray:none" d="m 218.69346,105.94786 c -5.50509,15.39033 -27.28846,11.79527 -30.60955,-0.67645 -2.2622,-11.125459 4.86987,-33.000629 0.33823,-45.660648 -11.29064,-25.743772 -9.79191,-50.5825881 6.59543,-50.2267175 24.9006,0.6423005 31.4343,24.0157055 27.05816,51.7487395 -2.98194,15.203291 -1.16684,38.346081 -3.38227,44.815076 z" id="path5637" inkscape:connector-curvature="0" sodipodi:nodetypes="cccccc"/>
        <path style="fill:#bf6000;fill-opacity:1;stroke:#000000;stroke-width:0.60000002;stroke-linecap:butt;stroke-linejoin:miter;stroke-miterlimit:4;stroke-opacity:1;stroke-dasharray:none" d="m 188.05745,11.205031 c -9.5489,6.155365 -9.02752,26.967589 0.375,48.40625 4.53164,12.660019 -2.60595,34.53079 -0.34375,45.656249 2.33217,8.75803 13.77084,13.1222 22.28125,9.625 -8.60201,5.1851 -21.76015,0.84252 -24.28125,-8.625 -2.2622,-11.125459 4.87539,-32.99623 0.34375,-45.656249 -10.02044,-22.847598 -9.96927,-44.963854 1.625,-49.40625 z" id="path5639" inkscape:connector-curvature="0"/>
        <path style="fill:#bf6000;fill-opacity:1;stroke:#000000;stroke-width:0.60000002;stroke-linecap:butt;stroke-linejoin:miter;stroke-miterlimit:4;stroke-opacity:1;stroke-dasharray:none" d="m 187.62673,51.536833 c -4.63951,19.421296 4.74242,35.527863 10.65416,29.763982 5.81582,-5.670373 -12.86439,-11.764239 -10.65416,-29.763982 z" id="path5641" inkscape:connector-curvature="0" sodipodi:nodetypes="csc"/>
        <path style="fill:#bf6000;fill-opacity:1;stroke:#000000;stroke-width:0.60000002;stroke-linecap:butt;stroke-linejoin:miter;stroke-miterlimit:4;stroke-opacity:1;stroke-dasharray:none" d="m 215.86869,79.440565 c 4.02759,4.600277 11.60529,-10.026491 8.11745,-22.322985 0.30862,10.654152 -11.98085,17.910244 -8.11745,22.322985 z" id="path5643" inkscape:connector-curvature="0" sodipodi:nodetypes="scs"/>
        <path style="fill:#ff8000;fill-opacity:1;stroke:#000000;stroke-width:0.60000002;stroke-linecap:butt;stroke-linejoin:miter;stroke-miterlimit:4;stroke-opacity:1;stroke-dasharray:none" d="m 187.79585,72.506911 c -6.16728,-20.717024 -6.25043,-38.138478 9.13213,-47.182675 -1.6293,-0.973086 -1.64546,-2.911032 -0.5956,-3.466298 1.27517,-0.674436 3.59172,1.741957 4.82343,2.451617 32.73807,14.389103 24.50139,37.814989 22.91859,46.253079 2.53816,-18.671472 -5.95289,-29.760145 -23.59504,-39.826765 -12.93738,11.618214 -15.93892,25.018811 -12.68351,41.771042 z" id="path5645" inkscape:connector-curvature="0" sodipodi:nodetypes="ccscccc"/>
      </g>
    </g>
    <g id="g5813">
      <g id="g5791" transform="translate(0,0.91238425)">
        <path inkscape:connector-curvature="0" id="path5529" d="m 273.831,125.96139 c 9.5489,6.15537 9.02752,26.96759 -0.375,48.40625 -4.53164,12.66002 2.60595,34.53079 0.34375,45.65625 -2.33217,8.75803 -13.77084,13.1222 -22.28125,9.625 8.60201,5.1851 21.76015,0.84252 24.28125,-8.625 2.2622,-11.12546 -4.87539,-32.99623 -0.34375,-45.65625 10.02044,-22.8476 9.96927,-44.96385 -1.625,-49.40625 z" style="fill:#bf9900;fill-opacity:1;stroke:#000000;stroke-width:0.60000002;stroke-linecap:butt;stroke-linejoin:miter;stroke-miterlimit:4;stroke-opacity:1;stroke-dasharray:none"/>
        <path sodipodi:nodetypes="cccccc" inkscape:connector-curvature="0" id="path5531" d="m 243.19499,220.70422 c 5.50509,15.39033 27.28846,11.79527 30.60955,-0.67645 2.2622,-11.12546 -4.86987,-33.00063 -0.33823,-45.66065 11.29064,-25.74377 9.79191,-50.58259 -6.59543,-50.22672 -24.9006,0.64231 -31.4343,24.01571 -27.05816,51.74875 2.98194,15.20329 1.16684,38.34608 3.38227,44.81507 z" style="fill:#ffcc00;fill-opacity:1;stroke:none"/>
        <path style="fill:url(#pattern5780);fill-opacity:1;stroke:#000000;stroke-width:0.60000002;stroke-miterlimit:4;stroke-opacity:1;stroke-dasharray:none" d="m 243.19499,220.70422 c 5.50509,15.39033 27.28846,11.79527 30.60955,-0.67645 2.2622,-11.12546 -4.86987,-33.00063 -0.33823,-45.66065 11.29064,-25.74377 9.79191,-50.58259 -6.59543,-50.22672 -24.9006,0.64231 -31.4343,24.01571 -27.05816,51.74875 2.98194,15.20329 1.16684,38.34608 3.38227,44.81507 z" id="path5789" inkscape:connector-curvature="0" sodipodi:nodetypes="cccccc"/>
        <path sodipodi:nodetypes="csc" inkscape:connector-curvature="0" id="path5535" d="m 274.26172,166.29319 c 4.63951,19.4213 -4.74242,35.52787 -10.65416,29.76399 -5.81582,-5.67038 12.86439,-11.76424 10.65416,-29.76399 z" style="fill:#bf9900;fill-opacity:1;stroke:#000000;stroke-width:0.60000002;stroke-linecap:butt;stroke-linejoin:miter;stroke-miterlimit:4;stroke-opacity:1;stroke-dasharray:none"/>
        <path sodipodi:nodetypes="scs" inkscape:connector-curvature="0" id="path5537" d="m 246.01976,194.19693 c -4.02759,4.60027 -11.60529,-10.02649 -8.11745,-22.32299 -0.30862,10.65415 11.98085,17.91025 8.11745,22.32299 z" style="fill:#bf9900;fill-opacity:1;stroke:#000000;stroke-width:0.60000002;stroke-linecap:butt;stroke-linejoin:miter;stroke-miterlimit:4;stroke-opacity:1;stroke-dasharray:none"/>
        <path sodipodi:nodetypes="ccscccc" inkscape:connector-curvature="0" id="path5539" d="m 274.0926,187.26327 c 6.16728,-20.71702 6.25043,-38.13848 -9.13213,-47.18267 1.6293,-0.97309 1.64546,-2.91104 0.5956,-3.4663 -1.27517,-0.67444 -3.59172,1.74196 -4.82343,2.45162 -32.73807,14.3891 -24.50139,37.81499 -22.91859,46.25308 -2.53816,-18.67148 5.95289,-29.76015 23.59504,-39.82677 12.93738,11.61821 15.93892,25.01881 12.68351,41.77104 z" style="fill:#ffcc00;fill-opacity:1;stroke:#000000;stroke-width:0.60000002;stroke-linecap:butt;stroke-linejoin:miter;stroke-miterlimit:4;stroke-opacity:1;stroke-dasharray:none"/>
      </g>
      <g id="g5799" transform="matrix(-1,0,0,1,572.12243,0.91238425)">
        <path style="fill:#bf9900;fill-opacity:1;stroke:#000000;stroke-width:0.60000002;stroke-linecap:butt;stroke-linejoin:miter;stroke-miterlimit:4;stroke-opacity:1;stroke-dasharray:none" d="m 273.831,125.96139 c 9.5489,6.15537 9.02752,26.96759 -0.375,48.40625 -4.53164,12.66002 2.60595,34.53079 0.34375,45.65625 -2.33217,8.75803 -13.77084,13.1222 -22.28125,9.625 8.60201,5.1851 21.76015,0.84252 24.28125,-8.625 2.2622,-11.12546 -4.87539,-32.99623 -0.34375,-45.65625 10.02044,-22.8476 9.96927,-44.96385 -1.625,-49.40625 z" id="path5801" inkscape:connector-curvature="0"/>
        <path style="fill:#ffcc00;fill-opacity:1;stroke:none" d="m 243.19499,220.70422 c 5.50509,15.39033 27.28846,11.79527 30.60955,-0.67645 2.2622,-11.12546 -4.86987,-33.00063 -0.33823,-45.66065 11.29064,-25.74377 9.79191,-50.58259 -6.59543,-50.22672 -24.9006,0.64231 -31.4343,24.01571 -27.05816,51.74875 2.98194,15.20329 1.16684,38.34608 3.38227,44.81507 z" id="path5803" inkscape:connector-curvature="0" sodipodi:nodetypes="cccccc"/>
        <path sodipodi:nodetypes="cccccc" inkscape:connector-curvature="0" id="path5805" d="m 243.19499,220.70422 c 5.50509,15.39033 27.28846,11.79527 30.60955,-0.67645 2.2622,-11.12546 -4.86987,-33.00063 -0.33823,-45.66065 11.29064,-25.74377 9.79191,-50.58259 -6.59543,-50.22672 -24.9006,0.64231 -31.4343,24.01571 -27.05816,51.74875 2.98194,15.20329 1.16684,38.34608 3.38227,44.81507 z" style="fill:url(#pattern5780);fill-opacity:1;stroke:#000000;stroke-width:0.60000002;stroke-miterlimit:4;stroke-opacity:1;stroke-dasharray:none"/>
        <path style="fill:#bf9900;fill-opacity:1;stroke:#000000;stroke-width:0.60000002;stroke-linecap:butt;stroke-linejoin:miter;stroke-miterlimit:4;stroke-opacity:1;stroke-dasharray:none" d="m 274.26172,166.29319 c 4.63951,19.4213 -4.74242,35.52787 -10.65416,29.76399 -5.81582,-5.67038 12.86439,-11.76424 10.65416,-29.76399 z" id="path5807" inkscape:connector-curvature="0" sodipodi:nodetypes="csc"/>
        <path style="fill:#bf9900;fill-opacity:1;stroke:#000000;stroke-width:0.60000002;stroke-linecap:butt;stroke-linejoin:miter;stroke-miterlimit:4;stroke-opacity:1;stroke-dasharray:none" d="m 246.01976,194.19693 c -4.02759,4.60027 -11.60529,-10.02649 -8.11745,-22.32299 -0.30862,10.65415 11.98085,17.91025 8.11745,22.32299 z" id="path5809" inkscape:connector-curvature="0" sodipodi:nodetypes="scs"/>
        <path style="fill:#ffcc00;fill-opacity:1;stroke:#000000;stroke-width:0.60000002;stroke-linecap:butt;stroke-linejoin:miter;stroke-miterlimit:4;stroke-opacity:1;stroke-dasharray:none" d="m 274.0926,187.26327 c 6.16728,-20.71702 6.25043,-38.13848 -9.13213,-47.18267 1.6293,-0.97309 1.64546,-2.91104 0.5956,-3.4663 -1.27517,-0.67444 -3.59172,1.74196 -4.82343,2.45162 -32.73807,14.3891 -24.50139,37.81499 -22.91859,46.25308 -2.53816,-18.67148 5.95289,-29.76015 23.59504,-39.82677 12.93738,11.61821 15.93892,25.01881 12.68351,41.77104 z" id="path5811" inkscape:connector-curvature="0" sodipodi:nodetypes="ccscccc"/>
      </g>
    </g>
  </g>
</svg>